<mxfile host="app.diagrams.net" modified="2021-12-20T10:58:31.858Z" agent="5.0 (Macintosh; Intel Mac OS X 10_15_7) AppleWebKit/537.36 (KHTML, like Gecko) Chrome/96.0.4664.110 Safari/537.36" etag="_rCIib9s6ltSH7whAACj" version="16.0.0" type="github">
  <diagram id="x8EzNgoKfJEA3I4Q9rvj" name="Page-1">
    <mxGraphModel dx="1186" dy="654" grid="1" gridSize="10" guides="1" tooltips="1" connect="1" arrows="1" fold="1" page="1" pageScale="1" pageWidth="827" pageHeight="1169" math="0" shadow="0">
      <root>
        <mxCell id="0" />
        <mxCell id="1" parent="0" />
        <mxCell id="cYbBZqKVau74TzbOSYix-7" style="edgeStyle=orthogonalEdgeStyle;rounded=0;orthogonalLoop=1;jettySize=auto;html=1;exitX=0.75;exitY=0;exitDx=0;exitDy=0;entryX=0.75;entryY=1;entryDx=0;entryDy=0;dashed=1;" parent="1" source="cYbBZqKVau74TzbOSYix-2" target="cYbBZqKVau74TzbOSYix-5" edge="1">
          <mxGeometry relative="1" as="geometry" />
        </mxCell>
        <mxCell id="cYbBZqKVau74TzbOSYix-9" value="deserialize" style="edgeLabel;html=1;align=center;verticalAlign=middle;resizable=0;points=[];" parent="cYbBZqKVau74TzbOSYix-7" vertex="1" connectable="0">
          <mxGeometry x="-0.0143" relative="1" as="geometry">
            <mxPoint y="19" as="offset" />
          </mxGeometry>
        </mxCell>
        <mxCell id="cYbBZqKVau74TzbOSYix-11" style="edgeStyle=orthogonalEdgeStyle;rounded=0;orthogonalLoop=1;jettySize=auto;html=1;exitX=0.25;exitY=1;exitDx=0;exitDy=0;entryX=0.25;entryY=0;entryDx=0;entryDy=0;" parent="1" source="cYbBZqKVau74TzbOSYix-2" target="cYbBZqKVau74TzbOSYix-3" edge="1">
          <mxGeometry relative="1" as="geometry" />
        </mxCell>
        <mxCell id="cYbBZqKVau74TzbOSYix-2" value="sketeton" style="rounded=1;whiteSpace=wrap;html=1;fillColor=#d5e8d4;strokeColor=#82b366;" parent="1" vertex="1">
          <mxGeometry x="80" y="250" width="120" height="60" as="geometry" />
        </mxCell>
        <mxCell id="cYbBZqKVau74TzbOSYix-12" style="edgeStyle=orthogonalEdgeStyle;rounded=0;orthogonalLoop=1;jettySize=auto;html=1;exitX=0.75;exitY=0;exitDx=0;exitDy=0;entryX=0.75;entryY=1;entryDx=0;entryDy=0;dashed=1;" parent="1" source="cYbBZqKVau74TzbOSYix-3" target="cYbBZqKVau74TzbOSYix-2" edge="1">
          <mxGeometry relative="1" as="geometry" />
        </mxCell>
        <mxCell id="cYbBZqKVau74TzbOSYix-27" value="network" style="edgeStyle=orthogonalEdgeStyle;rounded=0;orthogonalLoop=1;jettySize=auto;html=1;exitX=1;exitY=0.5;exitDx=0;exitDy=0;entryX=0;entryY=0.5;entryDx=0;entryDy=0;dashed=1;strokeColor=default;sketch=0;targetPerimeterSpacing=0;startArrow=classic;startFill=1;" parent="1" source="cYbBZqKVau74TzbOSYix-3" target="cYbBZqKVau74TzbOSYix-22" edge="1">
          <mxGeometry relative="1" as="geometry" />
        </mxCell>
        <mxCell id="cYbBZqKVau74TzbOSYix-3" value="protocol&lt;br&gt;stack" style="rounded=0;whiteSpace=wrap;html=1;fillColor=#e1d5e7;strokeColor=#9673a6;" parent="1" vertex="1">
          <mxGeometry x="80" y="420" width="120" height="60" as="geometry" />
        </mxCell>
        <mxCell id="cYbBZqKVau74TzbOSYix-6" style="edgeStyle=orthogonalEdgeStyle;rounded=0;orthogonalLoop=1;jettySize=auto;html=1;exitX=0.25;exitY=1;exitDx=0;exitDy=0;entryX=0.25;entryY=0;entryDx=0;entryDy=0;" parent="1" source="cYbBZqKVau74TzbOSYix-5" target="cYbBZqKVau74TzbOSYix-2" edge="1">
          <mxGeometry relative="1" as="geometry" />
        </mxCell>
        <mxCell id="cYbBZqKVau74TzbOSYix-8" value="serialize" style="edgeLabel;html=1;align=center;verticalAlign=middle;resizable=0;points=[];" parent="cYbBZqKVau74TzbOSYix-6" vertex="1" connectable="0">
          <mxGeometry x="-0.0143" y="-1" relative="1" as="geometry">
            <mxPoint y="-29" as="offset" />
          </mxGeometry>
        </mxCell>
        <mxCell id="cYbBZqKVau74TzbOSYix-5" value="Client" style="rounded=0;whiteSpace=wrap;html=1;fillColor=#dae8fc;strokeColor=#6c8ebf;" parent="1" vertex="1">
          <mxGeometry x="80" y="50" width="120" height="60" as="geometry" />
        </mxCell>
        <mxCell id="cYbBZqKVau74TzbOSYix-14" style="edgeStyle=orthogonalEdgeStyle;rounded=0;orthogonalLoop=1;jettySize=auto;html=1;exitX=0.5;exitY=1;exitDx=0;exitDy=0;exitPerimeter=0;entryX=0.5;entryY=0;entryDx=0;entryDy=0;dashed=1;" parent="1" source="cYbBZqKVau74TzbOSYix-10" target="cYbBZqKVau74TzbOSYix-13" edge="1">
          <mxGeometry relative="1" as="geometry" />
        </mxCell>
        <mxCell id="cYbBZqKVau74TzbOSYix-10" value="idl&lt;br&gt;interface definition language" style="shape=note;whiteSpace=wrap;html=1;backgroundOutline=1;darkOpacity=0.05;fillColor=#fff2cc;strokeColor=#d6b656;" parent="1" vertex="1">
          <mxGeometry x="320" y="40" width="200" height="80" as="geometry" />
        </mxCell>
        <mxCell id="cYbBZqKVau74TzbOSYix-16" value="&lt;font color=&quot;#ff0000&quot;&gt;stub&lt;/font&gt;" style="edgeStyle=orthogonalEdgeStyle;rounded=0;orthogonalLoop=1;jettySize=auto;html=1;exitX=0;exitY=0.5;exitDx=0;exitDy=0;entryX=1;entryY=0.5;entryDx=0;entryDy=0;dashed=1;" parent="1" source="cYbBZqKVau74TzbOSYix-13" target="cYbBZqKVau74TzbOSYix-2" edge="1">
          <mxGeometry relative="1" as="geometry" />
        </mxCell>
        <mxCell id="cYbBZqKVau74TzbOSYix-26" style="edgeStyle=orthogonalEdgeStyle;rounded=0;orthogonalLoop=1;jettySize=auto;html=1;exitX=1;exitY=0.5;exitDx=0;exitDy=0;dashed=1;" parent="1" source="cYbBZqKVau74TzbOSYix-13" target="cYbBZqKVau74TzbOSYix-20" edge="1">
          <mxGeometry relative="1" as="geometry" />
        </mxCell>
        <mxCell id="YM9ScRJdNRF9cjXQcWSV-33" value="skeleton" style="edgeLabel;html=1;align=center;verticalAlign=middle;resizable=0;points=[];fontColor=#FF0000;" vertex="1" connectable="0" parent="cYbBZqKVau74TzbOSYix-26">
          <mxGeometry x="-0.3143" y="2" relative="1" as="geometry">
            <mxPoint as="offset" />
          </mxGeometry>
        </mxCell>
        <mxCell id="cYbBZqKVau74TzbOSYix-13" value="compiler" style="rounded=1;whiteSpace=wrap;html=1;fillColor=#ffe6cc;strokeColor=#d79b00;" parent="1" vertex="1">
          <mxGeometry x="360" y="250" width="120" height="60" as="geometry" />
        </mxCell>
        <mxCell id="cYbBZqKVau74TzbOSYix-17" style="edgeStyle=orthogonalEdgeStyle;rounded=0;orthogonalLoop=1;jettySize=auto;html=1;exitX=0.75;exitY=0;exitDx=0;exitDy=0;entryX=0.75;entryY=1;entryDx=0;entryDy=0;dashed=1;" parent="1" source="cYbBZqKVau74TzbOSYix-20" target="cYbBZqKVau74TzbOSYix-25" edge="1">
          <mxGeometry relative="1" as="geometry" />
        </mxCell>
        <mxCell id="cYbBZqKVau74TzbOSYix-18" value="deserialize" style="edgeLabel;html=1;align=center;verticalAlign=middle;resizable=0;points=[];" parent="cYbBZqKVau74TzbOSYix-17" vertex="1" connectable="0">
          <mxGeometry x="-0.0143" relative="1" as="geometry">
            <mxPoint y="19" as="offset" />
          </mxGeometry>
        </mxCell>
        <mxCell id="cYbBZqKVau74TzbOSYix-19" style="edgeStyle=orthogonalEdgeStyle;rounded=0;orthogonalLoop=1;jettySize=auto;html=1;exitX=0.25;exitY=1;exitDx=0;exitDy=0;entryX=0.25;entryY=0;entryDx=0;entryDy=0;" parent="1" source="cYbBZqKVau74TzbOSYix-20" target="cYbBZqKVau74TzbOSYix-22" edge="1">
          <mxGeometry relative="1" as="geometry" />
        </mxCell>
        <mxCell id="cYbBZqKVau74TzbOSYix-20" value="sketeton" style="rounded=1;whiteSpace=wrap;html=1;fillColor=#d5e8d4;strokeColor=#82b366;" parent="1" vertex="1">
          <mxGeometry x="620" y="250" width="120" height="60" as="geometry" />
        </mxCell>
        <mxCell id="cYbBZqKVau74TzbOSYix-21" style="edgeStyle=orthogonalEdgeStyle;rounded=0;orthogonalLoop=1;jettySize=auto;html=1;exitX=0.75;exitY=0;exitDx=0;exitDy=0;entryX=0.75;entryY=1;entryDx=0;entryDy=0;dashed=1;" parent="1" source="cYbBZqKVau74TzbOSYix-22" target="cYbBZqKVau74TzbOSYix-20" edge="1">
          <mxGeometry relative="1" as="geometry" />
        </mxCell>
        <mxCell id="cYbBZqKVau74TzbOSYix-22" value="protocol&lt;br&gt;stack" style="rounded=0;whiteSpace=wrap;html=1;fillColor=#e1d5e7;strokeColor=#9673a6;" parent="1" vertex="1">
          <mxGeometry x="620" y="420" width="120" height="60" as="geometry" />
        </mxCell>
        <mxCell id="cYbBZqKVau74TzbOSYix-23" style="edgeStyle=orthogonalEdgeStyle;rounded=0;orthogonalLoop=1;jettySize=auto;html=1;exitX=0.25;exitY=1;exitDx=0;exitDy=0;entryX=0.25;entryY=0;entryDx=0;entryDy=0;" parent="1" source="cYbBZqKVau74TzbOSYix-25" target="cYbBZqKVau74TzbOSYix-20" edge="1">
          <mxGeometry relative="1" as="geometry" />
        </mxCell>
        <mxCell id="cYbBZqKVau74TzbOSYix-24" value="serialize" style="edgeLabel;html=1;align=center;verticalAlign=middle;resizable=0;points=[];" parent="cYbBZqKVau74TzbOSYix-23" vertex="1" connectable="0">
          <mxGeometry x="-0.0143" y="-1" relative="1" as="geometry">
            <mxPoint y="-29" as="offset" />
          </mxGeometry>
        </mxCell>
        <mxCell id="cYbBZqKVau74TzbOSYix-25" value="Client" style="rounded=0;whiteSpace=wrap;html=1;fillColor=#dae8fc;strokeColor=#6c8ebf;" parent="1" vertex="1">
          <mxGeometry x="620" y="50" width="120" height="60" as="geometry" />
        </mxCell>
        <mxCell id="YM9ScRJdNRF9cjXQcWSV-5" value="&lt;div class=&quot;lake-content&quot;&gt;&lt;p id=&quot;ue35cee20&quot; class=&quot;ne-p&quot; style=&quot;margin: 0 ; padding: 0 ; min-height: 24px&quot;&gt;&lt;span class=&quot;ne-text&quot;&gt;在开发 gPRC 应用程序时，需要先定义服务接口，其中应该包含如下信息：&lt;b&gt;&lt;font color=&quot;#ff0000&quot;&gt;消费者消费服务的方式，消费者能够远程调用的方法，以及调用这些方法所需要的参数和消息格式&lt;/font&gt;&lt;/b&gt;等。在服务定义中所使用的语言叫做接口定义语言（Interface Definition Language）&lt;/span&gt;&lt;/p&gt;&lt;p id=&quot;u1da1a02e&quot; class=&quot;ne-p&quot; style=&quot;margin: 0 ; padding: 0 ; min-height: 24px&quot;&gt;&lt;span class=&quot;ne-text&quot;&gt;&lt;/span&gt;&lt;/p&gt;&lt;p id=&quot;u1bf918ef&quot; class=&quot;ne-p&quot; style=&quot;margin: 0 ; padding: 0 ; min-height: 24px&quot;&gt;&lt;span class=&quot;ne-text&quot;&gt;借助服务定义（IDL），可以生成服务器端的代码，也称谓服务器端骨架（这里的“骨架”和“存根”都是代理，&lt;b&gt;&lt;font color=&quot;#ff0000&quot;&gt;服务器端的代理叫做“骨架”（skeleton），客户端的代理叫做“存根”（stub）&lt;/font&gt;&lt;/b&gt;），它通过底层级的通信抽象简化了服务端的逻辑，同时还可以生成客户端代码，也就是客户端存根，就像调用本地函数一样&lt;span style=&quot;white-space: pre&quot;&gt;	&lt;/span&gt;，客户端能够远程调用我在服务端接口所定义的方法。&lt;/span&gt;&lt;/p&gt;&lt;p id=&quot;u0b2ed73f&quot; class=&quot;ne-p&quot; style=&quot;margin: 0 ; padding: 0 ; min-height: 24px&quot;&gt;&lt;span class=&quot;ne-text&quot;&gt;&lt;/span&gt;&lt;/p&gt;&lt;p id=&quot;u573504d4&quot; class=&quot;ne-p&quot; style=&quot;margin: 0 ; padding: 0 ; min-height: 24px&quot;&gt;&lt;span class=&quot;ne-text&quot;&gt;底层 gRPC 框架处理所有复杂的工作，通常包括确保严格的服务契约、数据序列化、网络通信、认证、访问控制、可观察性等。&lt;/span&gt;&lt;/p&gt;&lt;/div&gt;" style="text;html=1;strokeColor=none;fillColor=none;align=left;verticalAlign=middle;whiteSpace=wrap;rounded=0;" vertex="1" parent="1">
          <mxGeometry x="80" y="530" width="680" height="190" as="geometry" />
        </mxCell>
        <mxCell id="YM9ScRJdNRF9cjXQcWSV-7" value="&lt;h1&gt;序列化原理&lt;/h1&gt;&lt;p&gt;protocol buffer&amp;nbsp;&lt;font color=&quot;#ff0000&quot;&gt;三个关于数据存储理论&lt;/font&gt; 的重要结论：&lt;/p&gt;&lt;p&gt;1、protocol buffer 将每一个字段进行编码后，&lt;font color=&quot;#ff0000&quot;&gt;&lt;b&gt;按照 T - L - V 的存储方式&lt;/b&gt;&lt;/font&gt;，进行数据存储，最终得到的是一个二进制字节流。&lt;/p&gt;&lt;p&gt;其中：&lt;font color=&quot;#ff0000&quot;&gt;&lt;b&gt;T：Tag（表示），L：length（长度），V：value（字段值）&lt;/b&gt;&lt;/font&gt;&lt;/p&gt;&lt;p&gt;其中 length 是可选存储，如存储 Varint 编码数据就不需要存储长度&lt;/p&gt;&lt;p&gt;2、TLV 存储方式的优点是：不需要分隔符（减少了分隔符的使用），字段间连结紧密（空间利用率提高），若字段没有设置字段值，则该 TLV 就不会存在（不需要编码，节省空间）&lt;/p&gt;" style="text;html=1;strokeColor=none;fillColor=none;spacing=5;spacingTop=-20;whiteSpace=wrap;overflow=hidden;rounded=0;fontColor=#000000;" vertex="1" parent="1">
          <mxGeometry x="80" y="790" width="680" height="200" as="geometry" />
        </mxCell>
        <mxCell id="YM9ScRJdNRF9cjXQcWSV-8" value="" style="shape=table;startSize=0;container=1;collapsible=0;childLayout=tableLayout;fontColor=#000000;" vertex="1" parent="1">
          <mxGeometry x="24" y="1017.5" width="780" height="40" as="geometry" />
        </mxCell>
        <mxCell id="YM9ScRJdNRF9cjXQcWSV-9" value="" style="shape=partialRectangle;collapsible=0;dropTarget=0;pointerEvents=0;fillColor=none;top=0;left=0;bottom=0;right=0;points=[[0,0.5],[1,0.5]];portConstraint=eastwest;fontColor=#FF0000;" vertex="1" parent="YM9ScRJdNRF9cjXQcWSV-8">
          <mxGeometry width="780" height="40" as="geometry" />
        </mxCell>
        <mxCell id="YM9ScRJdNRF9cjXQcWSV-10" value="&lt;font color=&quot;#000000&quot;&gt;Tag&lt;/font&gt;" style="shape=partialRectangle;html=1;whiteSpace=wrap;connectable=0;overflow=hidden;fillColor=none;top=0;left=0;bottom=0;right=0;pointerEvents=1;fontColor=#FF0000;" vertex="1" parent="YM9ScRJdNRF9cjXQcWSV-9">
          <mxGeometry width="60" height="40" as="geometry">
            <mxRectangle width="60" height="40" as="alternateBounds" />
          </mxGeometry>
        </mxCell>
        <mxCell id="YM9ScRJdNRF9cjXQcWSV-11" value="&lt;font color=&quot;#3399ff&quot;&gt;Length&lt;br&gt;可选&lt;/font&gt;" style="shape=partialRectangle;html=1;whiteSpace=wrap;connectable=0;overflow=hidden;top=0;left=0;bottom=0;right=0;pointerEvents=1;labelBackgroundColor=default;" vertex="1" parent="YM9ScRJdNRF9cjXQcWSV-9">
          <mxGeometry x="60" width="60" height="40" as="geometry">
            <mxRectangle width="60" height="40" as="alternateBounds" />
          </mxGeometry>
        </mxCell>
        <mxCell id="YM9ScRJdNRF9cjXQcWSV-12" value="&lt;font color=&quot;#000000&quot;&gt;Value&lt;/font&gt;" style="shape=partialRectangle;html=1;whiteSpace=wrap;connectable=0;overflow=hidden;fillColor=none;top=0;left=0;bottom=0;right=0;pointerEvents=1;fontColor=#FF0000;" vertex="1" parent="YM9ScRJdNRF9cjXQcWSV-9">
          <mxGeometry x="120" width="60" height="40" as="geometry">
            <mxRectangle width="60" height="40" as="alternateBounds" />
          </mxGeometry>
        </mxCell>
        <mxCell id="YM9ScRJdNRF9cjXQcWSV-13" value="&lt;span&gt;&lt;font color=&quot;#000000&quot;&gt;Tag&lt;/font&gt;&lt;/span&gt;" style="shape=partialRectangle;html=1;whiteSpace=wrap;connectable=0;overflow=hidden;fillColor=none;top=0;left=0;bottom=0;right=0;pointerEvents=1;fontColor=#FF0000;" vertex="1" parent="YM9ScRJdNRF9cjXQcWSV-9">
          <mxGeometry x="180" width="60" height="40" as="geometry">
            <mxRectangle width="60" height="40" as="alternateBounds" />
          </mxGeometry>
        </mxCell>
        <mxCell id="YM9ScRJdNRF9cjXQcWSV-14" value="&lt;font color=&quot;#3399ff&quot;&gt;Length&lt;br&gt;可选&lt;/font&gt;" style="shape=partialRectangle;html=1;whiteSpace=wrap;connectable=0;overflow=hidden;fillColor=none;top=0;left=0;bottom=0;right=0;pointerEvents=1;fontColor=#FF0000;" vertex="1" parent="YM9ScRJdNRF9cjXQcWSV-9">
          <mxGeometry x="240" width="60" height="40" as="geometry">
            <mxRectangle width="60" height="40" as="alternateBounds" />
          </mxGeometry>
        </mxCell>
        <mxCell id="YM9ScRJdNRF9cjXQcWSV-15" value="&lt;span&gt;&lt;font color=&quot;#000000&quot;&gt;Value&lt;/font&gt;&lt;/span&gt;" style="shape=partialRectangle;html=1;whiteSpace=wrap;connectable=0;overflow=hidden;fillColor=none;top=0;left=0;bottom=0;right=0;pointerEvents=1;fontColor=#FF0000;" vertex="1" parent="YM9ScRJdNRF9cjXQcWSV-9">
          <mxGeometry x="300" width="60" height="40" as="geometry">
            <mxRectangle width="60" height="40" as="alternateBounds" />
          </mxGeometry>
        </mxCell>
        <mxCell id="YM9ScRJdNRF9cjXQcWSV-16" value="&lt;span&gt;&lt;font color=&quot;#000000&quot;&gt;Tag&lt;/font&gt;&lt;/span&gt;" style="shape=partialRectangle;html=1;whiteSpace=wrap;connectable=0;overflow=hidden;fillColor=none;top=0;left=0;bottom=0;right=0;pointerEvents=1;fontColor=#FF0000;" vertex="1" parent="YM9ScRJdNRF9cjXQcWSV-9">
          <mxGeometry x="360" width="60" height="40" as="geometry">
            <mxRectangle width="60" height="40" as="alternateBounds" />
          </mxGeometry>
        </mxCell>
        <mxCell id="YM9ScRJdNRF9cjXQcWSV-17" value="&lt;font color=&quot;#3399ff&quot;&gt;Length&lt;br&gt;可选&lt;/font&gt;" style="shape=partialRectangle;html=1;whiteSpace=wrap;connectable=0;overflow=hidden;fillColor=none;top=0;left=0;bottom=0;right=0;pointerEvents=1;fontColor=#FF0000;" vertex="1" parent="YM9ScRJdNRF9cjXQcWSV-9">
          <mxGeometry x="420" width="60" height="40" as="geometry">
            <mxRectangle width="60" height="40" as="alternateBounds" />
          </mxGeometry>
        </mxCell>
        <mxCell id="YM9ScRJdNRF9cjXQcWSV-18" value="&lt;span&gt;&lt;font color=&quot;#000000&quot;&gt;Value&lt;/font&gt;&lt;/span&gt;" style="shape=partialRectangle;html=1;whiteSpace=wrap;connectable=0;overflow=hidden;fillColor=none;top=0;left=0;bottom=0;right=0;pointerEvents=1;fontColor=#FF0000;" vertex="1" parent="YM9ScRJdNRF9cjXQcWSV-9">
          <mxGeometry x="480" width="60" height="40" as="geometry">
            <mxRectangle width="60" height="40" as="alternateBounds" />
          </mxGeometry>
        </mxCell>
        <mxCell id="YM9ScRJdNRF9cjXQcWSV-19" value="&lt;font color=&quot;#000000&quot;&gt;...&lt;/font&gt;" style="shape=partialRectangle;html=1;whiteSpace=wrap;connectable=0;overflow=hidden;fillColor=none;top=0;left=0;bottom=0;right=0;pointerEvents=1;fontColor=#FF0000;" vertex="1" parent="YM9ScRJdNRF9cjXQcWSV-9">
          <mxGeometry x="540" width="60" height="40" as="geometry">
            <mxRectangle width="60" height="40" as="alternateBounds" />
          </mxGeometry>
        </mxCell>
        <mxCell id="YM9ScRJdNRF9cjXQcWSV-20" value="&lt;span&gt;&lt;font color=&quot;#000000&quot;&gt;Tag&lt;/font&gt;&lt;/span&gt;" style="shape=partialRectangle;html=1;whiteSpace=wrap;connectable=0;overflow=hidden;fillColor=none;top=0;left=0;bottom=0;right=0;pointerEvents=1;fontColor=#FF0000;" vertex="1" parent="YM9ScRJdNRF9cjXQcWSV-9">
          <mxGeometry x="600" width="60" height="40" as="geometry">
            <mxRectangle width="60" height="40" as="alternateBounds" />
          </mxGeometry>
        </mxCell>
        <mxCell id="YM9ScRJdNRF9cjXQcWSV-21" value="&lt;font color=&quot;#3399ff&quot;&gt;Length&lt;br&gt;可选&lt;/font&gt;" style="shape=partialRectangle;html=1;whiteSpace=wrap;connectable=0;overflow=hidden;fillColor=none;top=0;left=0;bottom=0;right=0;pointerEvents=1;fontColor=#FF0000;" vertex="1" parent="YM9ScRJdNRF9cjXQcWSV-9">
          <mxGeometry x="660" width="60" height="40" as="geometry">
            <mxRectangle width="60" height="40" as="alternateBounds" />
          </mxGeometry>
        </mxCell>
        <mxCell id="YM9ScRJdNRF9cjXQcWSV-22" value="&lt;span&gt;&lt;font color=&quot;#000000&quot;&gt;Value&lt;/font&gt;&lt;/span&gt;" style="shape=partialRectangle;html=1;whiteSpace=wrap;connectable=0;overflow=hidden;fillColor=none;top=0;left=0;bottom=0;right=0;pointerEvents=1;fontColor=#FF0000;" vertex="1" parent="YM9ScRJdNRF9cjXQcWSV-9">
          <mxGeometry x="720" width="60" height="40" as="geometry">
            <mxRectangle width="60" height="40" as="alternateBounds" />
          </mxGeometry>
        </mxCell>
        <mxCell id="YM9ScRJdNRF9cjXQcWSV-23" value="" style="shape=curlyBracket;whiteSpace=wrap;html=1;rounded=1;fontColor=#000000;rotation=-90;" vertex="1" parent="1">
          <mxGeometry x="105" y="992.5" width="20" height="170" as="geometry" />
        </mxCell>
        <mxCell id="YM9ScRJdNRF9cjXQcWSV-24" value="" style="shape=curlyBracket;whiteSpace=wrap;html=1;rounded=1;fontColor=#000000;rotation=-90;" vertex="1" parent="1">
          <mxGeometry x="282.5" y="990" width="20" height="175" as="geometry" />
        </mxCell>
        <mxCell id="YM9ScRJdNRF9cjXQcWSV-25" value="" style="shape=curlyBracket;whiteSpace=wrap;html=1;rounded=1;fontColor=#000000;rotation=-90;" vertex="1" parent="1">
          <mxGeometry x="460" y="990" width="20" height="175" as="geometry" />
        </mxCell>
        <mxCell id="YM9ScRJdNRF9cjXQcWSV-26" value="" style="shape=curlyBracket;whiteSpace=wrap;html=1;rounded=1;fontColor=#000000;rotation=-90;" vertex="1" parent="1">
          <mxGeometry x="700" y="990" width="20" height="175" as="geometry" />
        </mxCell>
        <mxCell id="YM9ScRJdNRF9cjXQcWSV-28" value="&lt;font color=&quot;#009900&quot;&gt;数据1&lt;/font&gt;" style="text;html=1;strokeColor=none;fillColor=none;align=center;verticalAlign=middle;whiteSpace=wrap;rounded=0;labelBackgroundColor=none;labelBorderColor=none;fontColor=#3399FF;" vertex="1" parent="1">
          <mxGeometry x="85" y="1087.5" width="60" height="30" as="geometry" />
        </mxCell>
        <mxCell id="YM9ScRJdNRF9cjXQcWSV-30" value="&lt;span style=&quot;color: rgb(0 , 153 , 0)&quot;&gt;数据2&lt;/span&gt;" style="text;html=1;strokeColor=none;fillColor=none;align=center;verticalAlign=middle;whiteSpace=wrap;rounded=0;labelBackgroundColor=none;labelBorderColor=none;fontColor=#3399FF;" vertex="1" parent="1">
          <mxGeometry x="260" y="1087.5" width="60" height="30" as="geometry" />
        </mxCell>
        <mxCell id="YM9ScRJdNRF9cjXQcWSV-31" value="&lt;span style=&quot;color: rgb(0 , 153 , 0)&quot;&gt;数据3&lt;/span&gt;" style="text;html=1;strokeColor=none;fillColor=none;align=center;verticalAlign=middle;whiteSpace=wrap;rounded=0;labelBackgroundColor=none;labelBorderColor=none;fontColor=#3399FF;" vertex="1" parent="1">
          <mxGeometry x="440" y="1087.5" width="60" height="30" as="geometry" />
        </mxCell>
        <mxCell id="YM9ScRJdNRF9cjXQcWSV-32" value="&lt;span style=&quot;color: rgb(0 , 153 , 0)&quot;&gt;数据n&lt;/span&gt;" style="text;html=1;strokeColor=none;fillColor=none;align=center;verticalAlign=middle;whiteSpace=wrap;rounded=0;labelBackgroundColor=none;labelBorderColor=none;fontColor=#3399FF;" vertex="1" parent="1">
          <mxGeometry x="680" y="1087.5" width="60" height="30" as="geometry" />
        </mxCell>
        <mxCell id="YM9ScRJdNRF9cjXQcWSV-34" value="" style="shape=cube;whiteSpace=wrap;html=1;boundedLbl=1;backgroundOutline=1;darkOpacity=0.05;darkOpacity2=0.1;labelBackgroundColor=none;labelBorderColor=none;fontColor=#FF0000;gradientColor=none;size=5;" vertex="1" parent="1">
          <mxGeometry x="105" y="1260" width="272.5" height="240" as="geometry" />
        </mxCell>
        <mxCell id="YM9ScRJdNRF9cjXQcWSV-35" value="&lt;font color=&quot;#000000&quot;&gt;&lt;b&gt;Client-Side&lt;/b&gt;&lt;/font&gt;" style="text;html=1;strokeColor=none;fillColor=none;align=center;verticalAlign=middle;whiteSpace=wrap;rounded=0;labelBackgroundColor=none;labelBorderColor=none;fontColor=#FF0000;" vertex="1" parent="1">
          <mxGeometry x="193.75" y="1280" width="95" height="30" as="geometry" />
        </mxCell>
        <mxCell id="YM9ScRJdNRF9cjXQcWSV-43" style="edgeStyle=none;rounded=0;orthogonalLoop=1;jettySize=auto;html=1;exitX=0.5;exitY=1;exitDx=0;exitDy=0;entryX=0.25;entryY=0;entryDx=0;entryDy=0;fontColor=#000000;dashed=1;" edge="1" parent="1" source="YM9ScRJdNRF9cjXQcWSV-36" target="YM9ScRJdNRF9cjXQcWSV-40">
          <mxGeometry relative="1" as="geometry" />
        </mxCell>
        <mxCell id="YM9ScRJdNRF9cjXQcWSV-44" value="发送请求" style="edgeLabel;html=1;align=center;verticalAlign=middle;resizable=0;points=[];fontColor=#000000;" vertex="1" connectable="0" parent="YM9ScRJdNRF9cjXQcWSV-43">
          <mxGeometry x="-0.2649" relative="1" as="geometry">
            <mxPoint as="offset" />
          </mxGeometry>
        </mxCell>
        <mxCell id="YM9ScRJdNRF9cjXQcWSV-36" value="&lt;font color=&quot;#000000&quot;&gt;GRPC&lt;/font&gt;" style="rounded=0;whiteSpace=wrap;html=1;labelBackgroundColor=none;labelBorderColor=none;fillColor=#fff2cc;strokeColor=#d6b656;" vertex="1" parent="1">
          <mxGeometry x="137.5" y="1330" width="66" height="40" as="geometry" />
        </mxCell>
        <mxCell id="YM9ScRJdNRF9cjXQcWSV-38" style="edgeStyle=orthogonalEdgeStyle;rounded=0;orthogonalLoop=1;jettySize=auto;html=1;exitX=0;exitY=0.5;exitDx=0;exitDy=0;entryX=1;entryY=0.5;entryDx=0;entryDy=0;fontColor=#000000;" edge="1" parent="1" source="YM9ScRJdNRF9cjXQcWSV-37" target="YM9ScRJdNRF9cjXQcWSV-36">
          <mxGeometry relative="1" as="geometry" />
        </mxCell>
        <mxCell id="YM9ScRJdNRF9cjXQcWSV-39" value="调用" style="edgeLabel;html=1;align=center;verticalAlign=middle;resizable=0;points=[];fontColor=#000000;" vertex="1" connectable="0" parent="YM9ScRJdNRF9cjXQcWSV-38">
          <mxGeometry x="-0.0811" y="-2" relative="1" as="geometry">
            <mxPoint as="offset" />
          </mxGeometry>
        </mxCell>
        <mxCell id="YM9ScRJdNRF9cjXQcWSV-37" value="&lt;font color=&quot;#000000&quot;&gt;Stub&lt;/font&gt;" style="rounded=0;whiteSpace=wrap;html=1;labelBackgroundColor=none;labelBorderColor=none;fillColor=#fff2cc;strokeColor=#d6b656;" vertex="1" parent="1">
          <mxGeometry x="277.5" y="1330" width="66" height="40" as="geometry" />
        </mxCell>
        <mxCell id="YM9ScRJdNRF9cjXQcWSV-41" style="rounded=0;orthogonalLoop=1;jettySize=auto;html=1;exitX=0.75;exitY=0;exitDx=0;exitDy=0;entryX=0.5;entryY=1;entryDx=0;entryDy=0;fontColor=#000000;" edge="1" parent="1" source="YM9ScRJdNRF9cjXQcWSV-40" target="YM9ScRJdNRF9cjXQcWSV-37">
          <mxGeometry relative="1" as="geometry" />
        </mxCell>
        <mxCell id="YM9ScRJdNRF9cjXQcWSV-42" value="创建" style="edgeLabel;html=1;align=center;verticalAlign=middle;resizable=0;points=[];fontColor=#000000;" vertex="1" connectable="0" parent="YM9ScRJdNRF9cjXQcWSV-41">
          <mxGeometry x="0.0062" relative="1" as="geometry">
            <mxPoint as="offset" />
          </mxGeometry>
        </mxCell>
        <mxCell id="YM9ScRJdNRF9cjXQcWSV-40" value="&lt;font color=&quot;#000000&quot;&gt;Channel&lt;/font&gt;" style="rounded=0;whiteSpace=wrap;html=1;labelBackgroundColor=none;labelBorderColor=none;fillColor=#fff2cc;strokeColor=#d6b656;" vertex="1" parent="1">
          <mxGeometry x="208.25" y="1430" width="66" height="40" as="geometry" />
        </mxCell>
        <mxCell id="YM9ScRJdNRF9cjXQcWSV-45" value="" style="shape=cube;whiteSpace=wrap;html=1;boundedLbl=1;backgroundOutline=1;darkOpacity=0.05;darkOpacity2=0.1;labelBackgroundColor=none;labelBorderColor=none;fontColor=#FF0000;gradientColor=none;size=5;" vertex="1" parent="1">
          <mxGeometry x="477.5" y="1260" width="272.5" height="240" as="geometry" />
        </mxCell>
        <mxCell id="YM9ScRJdNRF9cjXQcWSV-46" value="&lt;font color=&quot;#000000&quot;&gt;&lt;b&gt;Server-Side&lt;/b&gt;&lt;/font&gt;" style="text;html=1;strokeColor=none;fillColor=none;align=center;verticalAlign=middle;whiteSpace=wrap;rounded=0;labelBackgroundColor=none;labelBorderColor=none;fontColor=#FF0000;" vertex="1" parent="1">
          <mxGeometry x="566.25" y="1280" width="95" height="30" as="geometry" />
        </mxCell>
        <mxCell id="YM9ScRJdNRF9cjXQcWSV-57" style="edgeStyle=none;rounded=0;orthogonalLoop=1;jettySize=auto;html=1;exitX=0.25;exitY=1;exitDx=0;exitDy=0;entryX=0.5;entryY=0;entryDx=0;entryDy=0;fontColor=#000000;" edge="1" parent="1" source="YM9ScRJdNRF9cjXQcWSV-49" target="YM9ScRJdNRF9cjXQcWSV-56">
          <mxGeometry relative="1" as="geometry" />
        </mxCell>
        <mxCell id="YM9ScRJdNRF9cjXQcWSV-62" value="构建" style="edgeLabel;html=1;align=center;verticalAlign=middle;resizable=0;points=[];fontColor=#000000;" vertex="1" connectable="0" parent="YM9ScRJdNRF9cjXQcWSV-57">
          <mxGeometry x="-0.1329" relative="1" as="geometry">
            <mxPoint as="offset" />
          </mxGeometry>
        </mxCell>
        <mxCell id="YM9ScRJdNRF9cjXQcWSV-60" style="edgeStyle=none;rounded=0;orthogonalLoop=1;jettySize=auto;html=1;exitX=0.75;exitY=1;exitDx=0;exitDy=0;entryX=0.5;entryY=0;entryDx=0;entryDy=0;fontColor=#000000;" edge="1" parent="1" source="YM9ScRJdNRF9cjXQcWSV-49" target="YM9ScRJdNRF9cjXQcWSV-58">
          <mxGeometry relative="1" as="geometry" />
        </mxCell>
        <mxCell id="YM9ScRJdNRF9cjXQcWSV-61" value="注册" style="edgeLabel;html=1;align=center;verticalAlign=middle;resizable=0;points=[];fontColor=#000000;" vertex="1" connectable="0" parent="YM9ScRJdNRF9cjXQcWSV-60">
          <mxGeometry x="-0.2275" relative="1" as="geometry">
            <mxPoint as="offset" />
          </mxGeometry>
        </mxCell>
        <mxCell id="YM9ScRJdNRF9cjXQcWSV-49" value="ServerBuilder" style="rounded=0;whiteSpace=wrap;html=1;labelBackgroundColor=none;labelBorderColor=none;fillColor=#fff2cc;strokeColor=#d6b656;" vertex="1" parent="1">
          <mxGeometry x="565" y="1330" width="97.5" height="40" as="geometry" />
        </mxCell>
        <mxCell id="YM9ScRJdNRF9cjXQcWSV-53" style="rounded=0;orthogonalLoop=1;jettySize=auto;html=1;exitX=0.75;exitY=0;exitDx=0;exitDy=0;entryX=0.5;entryY=1;entryDx=0;entryDy=0;fontColor=#000000;" edge="1" parent="1" source="YM9ScRJdNRF9cjXQcWSV-55">
          <mxGeometry relative="1" as="geometry">
            <mxPoint x="645.5" y="1370" as="targetPoint" />
          </mxGeometry>
        </mxCell>
        <mxCell id="YM9ScRJdNRF9cjXQcWSV-54" value="创建" style="edgeLabel;html=1;align=center;verticalAlign=middle;resizable=0;points=[];fontColor=#000000;" vertex="1" connectable="0" parent="YM9ScRJdNRF9cjXQcWSV-53">
          <mxGeometry x="0.0062" relative="1" as="geometry">
            <mxPoint as="offset" />
          </mxGeometry>
        </mxCell>
        <mxCell id="YM9ScRJdNRF9cjXQcWSV-56" value="&lt;font color=&quot;#000000&quot;&gt;Server&lt;/font&gt;" style="rounded=0;whiteSpace=wrap;html=1;labelBackgroundColor=none;labelBorderColor=none;fillColor=#fff2cc;strokeColor=#d6b656;" vertex="1" parent="1">
          <mxGeometry x="517.5" y="1430" width="66" height="40" as="geometry" />
        </mxCell>
        <mxCell id="YM9ScRJdNRF9cjXQcWSV-59" style="edgeStyle=none;rounded=0;orthogonalLoop=1;jettySize=auto;html=1;exitX=0;exitY=0.5;exitDx=0;exitDy=0;entryX=1;entryY=0.5;entryDx=0;entryDy=0;fontColor=#000000;dashed=1;" edge="1" parent="1" source="YM9ScRJdNRF9cjXQcWSV-58" target="YM9ScRJdNRF9cjXQcWSV-56">
          <mxGeometry relative="1" as="geometry" />
        </mxCell>
        <mxCell id="YM9ScRJdNRF9cjXQcWSV-63" value="实现" style="edgeLabel;html=1;align=center;verticalAlign=middle;resizable=0;points=[];fontColor=#000000;" vertex="1" connectable="0" parent="YM9ScRJdNRF9cjXQcWSV-59">
          <mxGeometry y="2" relative="1" as="geometry">
            <mxPoint as="offset" />
          </mxGeometry>
        </mxCell>
        <mxCell id="YM9ScRJdNRF9cjXQcWSV-58" value="Service Impl" style="rounded=0;whiteSpace=wrap;html=1;labelBackgroundColor=none;labelBorderColor=none;fillColor=#fff2cc;strokeColor=#d6b656;" vertex="1" parent="1">
          <mxGeometry x="647.5" y="1430" width="80" height="40" as="geometry" />
        </mxCell>
        <mxCell id="YM9ScRJdNRF9cjXQcWSV-64" style="edgeStyle=none;rounded=0;orthogonalLoop=1;jettySize=auto;html=1;exitX=1;exitY=0.5;exitDx=0;exitDy=0;entryX=0;entryY=0.5;entryDx=0;entryDy=0;dashed=1;fontColor=#000000;" edge="1" parent="1" source="YM9ScRJdNRF9cjXQcWSV-40" target="YM9ScRJdNRF9cjXQcWSV-56">
          <mxGeometry relative="1" as="geometry" />
        </mxCell>
        <mxCell id="YM9ScRJdNRF9cjXQcWSV-65" value="TCP/HTTP2" style="edgeLabel;html=1;align=center;verticalAlign=middle;resizable=0;points=[];fontColor=#000000;" vertex="1" connectable="0" parent="YM9ScRJdNRF9cjXQcWSV-64">
          <mxGeometry x="0.1367" y="2" relative="1" as="geometry">
            <mxPoint x="15" y="2" as="offset" />
          </mxGeometry>
        </mxCell>
        <mxCell id="YM9ScRJdNRF9cjXQcWSV-66" value="&lt;b&gt;&lt;font style=&quot;font-size: 14px&quot;&gt;gRPC 核心概念&lt;/font&gt;&lt;/b&gt;" style="text;html=1;strokeColor=none;fillColor=none;align=center;verticalAlign=middle;whiteSpace=wrap;rounded=0;labelBackgroundColor=none;labelBorderColor=none;fontColor=#000000;" vertex="1" parent="1">
          <mxGeometry x="350" y="1200" width="150" height="30" as="geometry" />
        </mxCell>
        <mxCell id="YM9ScRJdNRF9cjXQcWSV-82" value="" style="group" vertex="1" connectable="0" parent="1">
          <mxGeometry x="80.5" y="1580" width="699.5" height="380" as="geometry" />
        </mxCell>
        <mxCell id="YM9ScRJdNRF9cjXQcWSV-67" value="Application（HTTP 2.0）&lt;br&gt;&lt;br&gt;" style="rounded=0;whiteSpace=wrap;html=1;labelBackgroundColor=none;labelBorderColor=none;fontSize=14;fillColor=#dae8fc;strokeColor=#6c8ebf;" vertex="1" parent="YM9ScRJdNRF9cjXQcWSV-82">
          <mxGeometry y="50" width="209" height="90" as="geometry" />
        </mxCell>
        <mxCell id="YM9ScRJdNRF9cjXQcWSV-68" value="Binary Framing" style="rounded=0;whiteSpace=wrap;html=1;labelBackgroundColor=none;labelBorderColor=none;fontSize=14;fillColor=#f8cecc;strokeColor=#b85450;" vertex="1" parent="YM9ScRJdNRF9cjXQcWSV-82">
          <mxGeometry x="43.25" y="100" width="115.75" height="40" as="geometry" />
        </mxCell>
        <mxCell id="YM9ScRJdNRF9cjXQcWSV-69" value="Session（TLS）&lt;br&gt;optional" style="rounded=0;whiteSpace=wrap;html=1;labelBackgroundColor=none;labelBorderColor=none;fontSize=14;fontColor=#333333;fillColor=#f5f5f5;strokeColor=#666666;" vertex="1" parent="YM9ScRJdNRF9cjXQcWSV-82">
          <mxGeometry y="140" width="209" height="60" as="geometry" />
        </mxCell>
        <mxCell id="YM9ScRJdNRF9cjXQcWSV-70" value="Transport（TCP）" style="rounded=0;whiteSpace=wrap;html=1;labelBackgroundColor=none;labelBorderColor=none;fontSize=14;fillColor=#d5e8d4;strokeColor=#82b366;" vertex="1" parent="YM9ScRJdNRF9cjXQcWSV-82">
          <mxGeometry y="200" width="209" height="60" as="geometry" />
        </mxCell>
        <mxCell id="YM9ScRJdNRF9cjXQcWSV-71" value="Network（IP）" style="rounded=0;whiteSpace=wrap;html=1;labelBackgroundColor=none;labelBorderColor=none;fontSize=14;fillColor=#e1d5e7;strokeColor=#9673a6;" vertex="1" parent="YM9ScRJdNRF9cjXQcWSV-82">
          <mxGeometry y="260" width="209" height="60" as="geometry" />
        </mxCell>
        <mxCell id="YM9ScRJdNRF9cjXQcWSV-72" value="" style="rounded=0;whiteSpace=wrap;html=1;labelBackgroundColor=none;labelBorderColor=none;fontSize=14;fillColor=#fff2cc;strokeColor=#d6b656;" vertex="1" parent="YM9ScRJdNRF9cjXQcWSV-82">
          <mxGeometry x="297" width="402.5" height="380" as="geometry" />
        </mxCell>
        <mxCell id="YM9ScRJdNRF9cjXQcWSV-80" style="edgeStyle=orthogonalEdgeStyle;rounded=0;orthogonalLoop=1;jettySize=auto;html=1;exitX=1;exitY=0.5;exitDx=0;exitDy=0;entryX=0;entryY=0.25;entryDx=0;entryDy=0;fontSize=14;fontColor=#000000;" edge="1" parent="YM9ScRJdNRF9cjXQcWSV-82" source="YM9ScRJdNRF9cjXQcWSV-67" target="YM9ScRJdNRF9cjXQcWSV-72">
          <mxGeometry relative="1" as="geometry" />
        </mxCell>
        <mxCell id="YM9ScRJdNRF9cjXQcWSV-73" value="&amp;nbsp; &lt;b&gt;POST&lt;/b&gt; /upload &lt;b&gt;HTTP/1.1&lt;/b&gt;&lt;br&gt;&amp;nbsp; &lt;b&gt;Host&lt;/b&gt;: www.example.org&lt;br&gt;&amp;nbsp; &lt;b&gt;Content-Type&lt;/b&gt;:&amp;nbsp; application/json&lt;br&gt;&amp;nbsp; &lt;b&gt;Content-Length&lt;/b&gt;: 15&lt;br&gt;&lt;br&gt;&amp;nbsp; {&quot;msg&quot;: &quot;hello&quot;}" style="rounded=0;whiteSpace=wrap;html=1;labelBackgroundColor=none;labelBorderColor=none;fontSize=14;fontColor=#333333;align=left;fillColor=#f5f5f5;strokeColor=#666666;" vertex="1" parent="YM9ScRJdNRF9cjXQcWSV-82">
          <mxGeometry x="393.5" y="50" width="220" height="140" as="geometry" />
        </mxCell>
        <mxCell id="YM9ScRJdNRF9cjXQcWSV-74" value="&lt;b&gt;HEADERS&lt;/b&gt; frame" style="rounded=0;whiteSpace=wrap;html=1;labelBackgroundColor=none;labelBorderColor=none;fontSize=14;fillColor=#dae8fc;strokeColor=#6c8ebf;" vertex="1" parent="YM9ScRJdNRF9cjXQcWSV-82">
          <mxGeometry x="393.5" y="230" width="220" height="60" as="geometry" />
        </mxCell>
        <mxCell id="YM9ScRJdNRF9cjXQcWSV-77" style="edgeStyle=orthogonalEdgeStyle;rounded=0;orthogonalLoop=1;jettySize=auto;html=1;exitX=1;exitY=0.25;exitDx=0;exitDy=0;entryX=1;entryY=0.5;entryDx=0;entryDy=0;dashed=1;fontSize=14;fontColor=#000000;" edge="1" parent="YM9ScRJdNRF9cjXQcWSV-82" source="YM9ScRJdNRF9cjXQcWSV-73" target="YM9ScRJdNRF9cjXQcWSV-74">
          <mxGeometry relative="1" as="geometry">
            <Array as="points">
              <mxPoint x="663.5" y="85" />
              <mxPoint x="663.5" y="260" />
            </Array>
          </mxGeometry>
        </mxCell>
        <mxCell id="YM9ScRJdNRF9cjXQcWSV-75" value="&lt;b&gt;DATAS&lt;/b&gt; frame" style="rounded=0;whiteSpace=wrap;html=1;labelBackgroundColor=none;labelBorderColor=none;fontSize=14;fillColor=#d5e8d4;strokeColor=#82b366;" vertex="1" parent="YM9ScRJdNRF9cjXQcWSV-82">
          <mxGeometry x="393.5" y="290" width="220" height="60" as="geometry" />
        </mxCell>
        <mxCell id="YM9ScRJdNRF9cjXQcWSV-76" style="edgeStyle=orthogonalEdgeStyle;rounded=0;orthogonalLoop=1;jettySize=auto;html=1;exitX=0;exitY=0.75;exitDx=0;exitDy=0;dashed=1;fontSize=14;fontColor=#000000;entryX=0;entryY=0.5;entryDx=0;entryDy=0;" edge="1" parent="YM9ScRJdNRF9cjXQcWSV-82" source="YM9ScRJdNRF9cjXQcWSV-73" target="YM9ScRJdNRF9cjXQcWSV-75">
          <mxGeometry relative="1" as="geometry">
            <mxPoint x="333.5" y="260" as="targetPoint" />
            <Array as="points">
              <mxPoint x="333.5" y="155" />
              <mxPoint x="333.5" y="320" />
            </Array>
          </mxGeometry>
        </mxCell>
        <mxCell id="YM9ScRJdNRF9cjXQcWSV-78" value="HTTP/1.1" style="text;html=1;strokeColor=none;fillColor=none;align=center;verticalAlign=middle;whiteSpace=wrap;rounded=0;labelBackgroundColor=none;labelBorderColor=none;fontSize=14;fontColor=#000000;" vertex="1" parent="YM9ScRJdNRF9cjXQcWSV-82">
          <mxGeometry x="393.5" y="20" width="60" height="30" as="geometry" />
        </mxCell>
        <mxCell id="YM9ScRJdNRF9cjXQcWSV-79" value="HTTP/2.0" style="text;html=1;strokeColor=none;fillColor=none;align=center;verticalAlign=middle;whiteSpace=wrap;rounded=0;labelBackgroundColor=none;labelBorderColor=none;fontSize=14;fontColor=#000000;" vertex="1" parent="YM9ScRJdNRF9cjXQcWSV-82">
          <mxGeometry x="393.5" y="200" width="60" height="30" as="geometry" />
        </mxCell>
      </root>
    </mxGraphModel>
  </diagram>
</mxfile>
